<?xml version="1.0" encoding="UTF-8"?>
<svg id="Camada_1" data-name="Camada 1" xmlns="http://www.w3.org/2000/svg" viewBox="0 0 427.98 506.01">
  <defs>
    <style>
      .cls-1 {
        fill: #f99104;
      }

      .cls-2 {
        fill: #fff;
      }
    </style>
  </defs>
  <path class="cls-2" d="M308.86,200.88c1.96,1.46,3.12,3.13,5.38,5.38-5.17,5.79-10.04,11.81-17.34,15.64-11.22,5.9-26.78,6.58-37.77-.87-26.95-18.26-58.49-26.63-90.8-21.06-43.14,7.44-78.47,37.32-94.21,77.92-19.45,50.19-3.69,107.13,38.05,140.39,44.81,35.71,106.72,35.16,151.6-.53,9.94-7.91,25.91-4.76,35.86,1.34,7.76,4.76,13.07,10.22,19.97,15.59,2.29,1.78,4.12,4,4.31,6.44.22,2.87-.59,5.12-2.53,7.23-6.29,6.83-12.64,12.81-20,18.51-82.98,64.29-203.19,47.38-265.78-35.85C-2.57,380.25-10.51,312.36,14.02,253.94c8.54-20.35,21.19-37.9,36.59-53.06,46.85-21.45,88.88-33.52,141.01-31.68,44.99,1.59,77.63,12.66,117.23,31.68Z"/>
  <path class="cls-1" d="M336.49,163.62c-1.01-.3-2.9-.92-3.9-1.83-.42-.39-.61-.96-.61-1.54.28-36.6-6.78-67.74-30.77-96.13-16.14-19.11-36.4-33.62-59.81-42.59-2.41-.92-6.29.83-6.76,3.47l-14.06,81.98c-.64,3.81-2.3,6.23-6.12,6.55-2.73.22-6.94-1.88-6.52-5.56l4.05-35.29,6.86-57.64c.71-5.86-4.99-10.03-10.31-11.42-19.57-5.11-40.07-4.62-59.56.16-7.37,1.81-10.69,7.66-9.76,14.82l11.62,89.28c.42,3.26-3.16,5.03-5.35,5.46-2.26.45-6.18-.5-6.74-3.61l-14.82-82.86c-.61-3.39-3.48-6.61-7.24-5.19-21.03,8-39.78,20.45-55.39,36.69-21.08,21.9-33.17,49.74-35.67,79.97-.6,7.38-.48,14.46-.61,21.64-.02.84-.5,1.6-1.26,1.97-9.98,4.88-15.97,7.41-16.13,21.34-.11,10.02,6.34,17.42,16.76,17.21,8.75-.17,17.57-.59,25.97.32.18.02.37.02.55,0,2.67-.36,4.32-.59,4.97-.67.21-.03.4-.09.6-.18,78.44-37.87,169.36-40.1,247.02.11.2.11.41.17.64.2.61.08,2.07.27,4.36.55.23.03.47.02.7-.02,14.93-2.82,39.36,6.97,40.78-16.69.56-9.47-4.25-17.79-13.49-20.5ZM326.23,186.79c-.93.34-2.28.26-3.5-.35-11.99-5.96-23.26-11.51-36.19-16.67-57.12-22.81-119.24-26.73-178.34-10.87-24.28,6.5-47.01,15.65-69.21,26.94-1.72.87-3.66,1.4-5.37,1.13-1.87-.3-2.36-2.81-.84-3.94,17.9-13.24,37.04-23.03,57.55-30.66,30.23-11.25,61.15-16.12,93.51-15.93,51.53.3,101.41,16.19,142.92,46.57,1.38,1.01,1.08,3.17-.52,3.78h0Z"/>
  <g>
    <path class="cls-2" d="M351.69,363.08c-10.6,0-19.68,6.61-23.51,16.84l-122.74-.05-43-39.83-.08-38.92,44.65-42.23,124.01.02c5.27,11.17,17.08,16.68,28.56,14.19,11.32-2.46,19.57-12.72,19.67-24.47.11-11.56-7.88-22.12-19.62-24.73-14.05-3.1-27.58,5.91-30.28,20.33l-126.21.06c-1.78,0-3.36.85-4.53,1.94l-48.45,45.15c-1.73,1.62-2.49,3.36-2.49,5.76l-.11,44.86c0,2.83.4,5.36,2.54,7.34l44.99,41.49c1.53,1.41,3.48,3.77,6.26,3.79l126.45.08c3.81,14.18,18.32,21.58,31.45,17.45,13.25-4.16,20.58-18.24,16.15-31.82-3.5-10.5-13.09-17.26-23.71-17.26ZM350.45,237.57c6.69-2.23,12.68,1.64,14.61,7.69,1.8,5.64-1.57,12.12-7.18,13.97-6.12,2.02-12.62-.95-14.71-7.26-1.8-5.39.74-12.2,7.27-14.4ZM353.75,399.28c-5.8,1.03-11.64-2.62-13.09-8.51-1.44-5.83,2.28-12.49,9.01-13.79,6.73-1.3,12.17,3.26,13.26,9.09,1.14,6.2-2.91,12.11-9.18,13.21Z"/>
    <path class="cls-2" d="M427.84,314.25c-2.41-11.96-31.18-20.23-42.58-20.79-11.3-.56-21.72,6.39-25.11,17.71l-93.26-.02c-3.58-10.32-12.41-17.18-22.99-17.64-10-.45-19.73,5.15-23.86,14.72-5.97,13.6.63,28.63,13.84,33.67,13.68,5.23,28.42-1.78,33.17-15.96l92.94.06c4.38,13.08,17.39,20.09,30.31,16.86,12.2-3.05,39.85-15.25,37.54-28.61ZM246.8,329.25c-5.72,2.04-11.91-.69-14.26-5.97-2.65-5.97-.19-13.2,6.5-15.43,6.53-2.18,12.76,1.2,14.71,6.95,1.99,5.91-1.04,12.35-6.95,14.45ZM385.82,329.75c-6.47,1.04-11.99-3.44-13.07-9.1-1.19-6.41,2.91-12.43,9.79-13.42,6.86-.98,12.03,4.17,12.73,9.75.82,6.57-3.72,11.86-9.46,12.78Z"/>
  </g>
</svg>